M48
;GenerationSoftware,Autodesk,EAGLE,9.3.0*%
;CreationDate,2020-01-31T15:58:35Z*%
FMAT,2
ICI,OFF
METRIC,TZ,000.000
T2C0.400
T1C1.702
%
G90
M71
T1
X5657Y46170
X5657Y39041
X5689Y32944
X83165Y44881
X83387Y39484
X83581Y33032
X5613Y20292
X5484Y26774
T2
X57836Y26289
X52807Y33147
X75667Y22631
X54178Y31318
X27582Y34061
X84245Y21577
X65161Y21290
X22860Y37719
X12116Y40234
X67666Y35204
X67666Y30175
X60350Y32004
X33833Y36347
X30027Y32760
X13503Y34976
M30