G04 EAGLE Gerber RS-274X export*
G75*
%MOMM*%
%FSLAX34Y34*%
%LPD*%
%INTop Copper*%
%IPPOS*%
%AMOC8*
5,1,8,0,0,1.08239X$1,22.5*%
G01*
%ADD10C,0.152400*%
%ADD11R,1.500000X1.300000*%
%ADD12R,0.800000X0.600000*%
%ADD13R,1.400000X1.000000*%
%ADD14R,1.000000X1.400000*%
%ADD15R,1.600000X1.300000*%
%ADD16R,1.300000X1.600000*%
%ADD17C,0.304800*%
%ADD18C,0.806400*%


D10*
X152743Y66802D02*
X158161Y66802D01*
X158279Y66804D01*
X158397Y66810D01*
X158515Y66819D01*
X158632Y66833D01*
X158749Y66850D01*
X158866Y66871D01*
X158981Y66896D01*
X159096Y66925D01*
X159210Y66958D01*
X159322Y66994D01*
X159433Y67034D01*
X159543Y67077D01*
X159652Y67124D01*
X159759Y67174D01*
X159864Y67229D01*
X159967Y67286D01*
X160068Y67347D01*
X160168Y67411D01*
X160265Y67478D01*
X160360Y67548D01*
X160452Y67622D01*
X160543Y67698D01*
X160630Y67778D01*
X160715Y67860D01*
X160797Y67945D01*
X160877Y68032D01*
X160953Y68123D01*
X161027Y68215D01*
X161097Y68310D01*
X161164Y68407D01*
X161228Y68507D01*
X161289Y68608D01*
X161346Y68711D01*
X161401Y68816D01*
X161451Y68923D01*
X161498Y69032D01*
X161541Y69142D01*
X161581Y69253D01*
X161617Y69365D01*
X161650Y69479D01*
X161679Y69594D01*
X161704Y69709D01*
X161725Y69826D01*
X161742Y69943D01*
X161756Y70060D01*
X161765Y70178D01*
X161771Y70296D01*
X161773Y70414D01*
X161774Y70414D02*
X161774Y72221D01*
X161773Y72221D02*
X161771Y72339D01*
X161765Y72457D01*
X161756Y72575D01*
X161742Y72692D01*
X161725Y72809D01*
X161704Y72926D01*
X161679Y73041D01*
X161650Y73156D01*
X161617Y73270D01*
X161581Y73382D01*
X161541Y73493D01*
X161498Y73603D01*
X161451Y73712D01*
X161401Y73819D01*
X161346Y73924D01*
X161289Y74027D01*
X161228Y74128D01*
X161164Y74228D01*
X161097Y74325D01*
X161027Y74420D01*
X160953Y74512D01*
X160877Y74603D01*
X160797Y74690D01*
X160715Y74775D01*
X160630Y74857D01*
X160543Y74937D01*
X160452Y75013D01*
X160360Y75087D01*
X160265Y75157D01*
X160168Y75224D01*
X160068Y75288D01*
X159967Y75349D01*
X159864Y75406D01*
X159759Y75461D01*
X159652Y75511D01*
X159543Y75558D01*
X159433Y75601D01*
X159322Y75641D01*
X159210Y75677D01*
X159096Y75710D01*
X158981Y75739D01*
X158866Y75764D01*
X158749Y75785D01*
X158632Y75802D01*
X158515Y75816D01*
X158397Y75825D01*
X158279Y75831D01*
X158161Y75833D01*
X152743Y75833D01*
X152743Y83058D01*
X161774Y83058D01*
X167471Y83058D02*
X172889Y66802D01*
X178308Y83058D01*
X197189Y47893D02*
X199898Y47893D01*
X199898Y38862D01*
X194479Y38862D01*
X194361Y38864D01*
X194243Y38870D01*
X194125Y38879D01*
X194008Y38893D01*
X193891Y38910D01*
X193774Y38931D01*
X193659Y38956D01*
X193544Y38985D01*
X193430Y39018D01*
X193318Y39054D01*
X193207Y39094D01*
X193097Y39137D01*
X192988Y39184D01*
X192881Y39234D01*
X192776Y39289D01*
X192673Y39346D01*
X192572Y39407D01*
X192472Y39471D01*
X192375Y39538D01*
X192280Y39608D01*
X192188Y39682D01*
X192097Y39758D01*
X192010Y39838D01*
X191925Y39920D01*
X191843Y40005D01*
X191763Y40092D01*
X191687Y40183D01*
X191613Y40275D01*
X191543Y40370D01*
X191476Y40467D01*
X191412Y40567D01*
X191351Y40668D01*
X191294Y40771D01*
X191239Y40876D01*
X191189Y40983D01*
X191142Y41092D01*
X191099Y41202D01*
X191059Y41313D01*
X191023Y41425D01*
X190990Y41539D01*
X190961Y41654D01*
X190936Y41769D01*
X190915Y41886D01*
X190898Y42003D01*
X190884Y42120D01*
X190875Y42238D01*
X190869Y42356D01*
X190867Y42474D01*
X190867Y51506D01*
X190869Y51624D01*
X190875Y51742D01*
X190884Y51860D01*
X190898Y51977D01*
X190915Y52094D01*
X190936Y52211D01*
X190961Y52326D01*
X190990Y52441D01*
X191023Y52555D01*
X191059Y52667D01*
X191099Y52778D01*
X191142Y52888D01*
X191189Y52997D01*
X191239Y53104D01*
X191293Y53209D01*
X191351Y53312D01*
X191412Y53413D01*
X191476Y53513D01*
X191543Y53610D01*
X191613Y53705D01*
X191687Y53797D01*
X191763Y53888D01*
X191843Y53975D01*
X191925Y54060D01*
X192010Y54142D01*
X192097Y54222D01*
X192188Y54298D01*
X192280Y54372D01*
X192375Y54442D01*
X192472Y54509D01*
X192572Y54573D01*
X192673Y54634D01*
X192776Y54691D01*
X192881Y54745D01*
X192988Y54796D01*
X193097Y54843D01*
X193207Y54886D01*
X193318Y54926D01*
X193430Y54962D01*
X193544Y54995D01*
X193659Y55024D01*
X193774Y55049D01*
X193891Y55070D01*
X194008Y55087D01*
X194125Y55101D01*
X194243Y55110D01*
X194361Y55116D01*
X194479Y55118D01*
X199898Y55118D01*
X193548Y23368D02*
X182711Y7112D01*
X193548Y7112D02*
X182711Y23368D01*
X178167Y96012D02*
X178167Y112268D01*
X182682Y112268D01*
X182813Y112266D01*
X182945Y112260D01*
X183076Y112251D01*
X183206Y112237D01*
X183337Y112220D01*
X183466Y112199D01*
X183595Y112175D01*
X183723Y112146D01*
X183851Y112114D01*
X183977Y112078D01*
X184102Y112039D01*
X184227Y111996D01*
X184349Y111949D01*
X184471Y111899D01*
X184591Y111845D01*
X184709Y111788D01*
X184825Y111727D01*
X184940Y111663D01*
X185053Y111596D01*
X185164Y111525D01*
X185272Y111451D01*
X185379Y111374D01*
X185483Y111294D01*
X185585Y111211D01*
X185684Y111126D01*
X185781Y111037D01*
X185875Y110945D01*
X185967Y110851D01*
X186056Y110754D01*
X186141Y110655D01*
X186224Y110553D01*
X186304Y110449D01*
X186381Y110342D01*
X186455Y110234D01*
X186526Y110123D01*
X186593Y110010D01*
X186657Y109895D01*
X186718Y109779D01*
X186775Y109661D01*
X186829Y109541D01*
X186879Y109419D01*
X186926Y109297D01*
X186969Y109172D01*
X187008Y109047D01*
X187044Y108921D01*
X187076Y108793D01*
X187105Y108665D01*
X187129Y108536D01*
X187150Y108407D01*
X187167Y108276D01*
X187181Y108146D01*
X187190Y108015D01*
X187196Y107883D01*
X187198Y107752D01*
X187198Y100528D01*
X187196Y100397D01*
X187190Y100265D01*
X187181Y100134D01*
X187167Y100004D01*
X187150Y99873D01*
X187129Y99744D01*
X187105Y99615D01*
X187076Y99487D01*
X187044Y99359D01*
X187008Y99233D01*
X186969Y99108D01*
X186926Y98983D01*
X186879Y98861D01*
X186829Y98739D01*
X186775Y98619D01*
X186718Y98501D01*
X186657Y98385D01*
X186593Y98270D01*
X186526Y98157D01*
X186455Y98046D01*
X186381Y97938D01*
X186304Y97831D01*
X186224Y97727D01*
X186141Y97625D01*
X186056Y97526D01*
X185967Y97429D01*
X185875Y97335D01*
X185781Y97243D01*
X185684Y97154D01*
X185585Y97069D01*
X185483Y96986D01*
X185379Y96906D01*
X185272Y96829D01*
X185164Y96755D01*
X185053Y96684D01*
X184940Y96617D01*
X184825Y96553D01*
X184709Y96492D01*
X184591Y96435D01*
X184471Y96381D01*
X184349Y96331D01*
X184227Y96284D01*
X184102Y96241D01*
X183977Y96202D01*
X183851Y96166D01*
X183723Y96134D01*
X183595Y96105D01*
X183466Y96081D01*
X183336Y96060D01*
X183206Y96043D01*
X183076Y96029D01*
X182945Y96020D01*
X182813Y96014D01*
X182682Y96012D01*
X178167Y96012D01*
D11*
X160020Y31140D03*
X160020Y50140D03*
D12*
X173790Y184150D03*
X148790Y184150D03*
D13*
X61390Y44450D03*
X83390Y53950D03*
X83390Y34950D03*
D14*
X123190Y182450D03*
X132690Y160450D03*
X113690Y160450D03*
X100330Y94820D03*
X109830Y72820D03*
X90830Y72820D03*
X48260Y125300D03*
X57760Y103300D03*
X38760Y103300D03*
D15*
X134620Y50140D03*
X134620Y31140D03*
X109220Y50140D03*
X109220Y31140D03*
D16*
X75590Y158750D03*
X94590Y158750D03*
X43790Y158750D03*
X24790Y158750D03*
D15*
X81280Y114960D03*
X81280Y133960D03*
D16*
X151790Y146050D03*
X170790Y146050D03*
D15*
X35560Y50190D03*
X35560Y69190D03*
D14*
X116840Y136730D03*
X126340Y114730D03*
X107340Y114730D03*
D17*
X80010Y136144D02*
X46482Y136144D01*
X24130Y158496D01*
X80010Y136144D02*
X81280Y133960D01*
X24790Y158750D02*
X24130Y158496D01*
X127610Y87630D02*
X186518Y87630D01*
D18*
X186518Y87630D03*
D17*
X115388Y122993D02*
X113603Y124778D01*
X115388Y99852D02*
X127610Y87630D01*
X115388Y99852D02*
X115388Y122993D01*
X90462Y124778D02*
X81280Y133960D01*
X90462Y124778D02*
X113603Y124778D01*
X107950Y52324D02*
X85598Y52324D01*
X83390Y53950D01*
X107950Y52324D02*
X109220Y50140D01*
X110744Y52324D02*
X110744Y71882D01*
X109830Y72820D01*
X110744Y52324D02*
X109220Y50140D01*
X135890Y49530D02*
X158242Y49530D01*
X160020Y50140D01*
X135890Y49530D02*
X134620Y50140D01*
X38100Y49530D02*
X35560Y50190D01*
X160020Y50140D02*
X161036Y49530D01*
X133096Y49530D02*
X110744Y49530D01*
X109220Y50140D01*
X133096Y49530D02*
X134620Y50140D01*
X69653Y36402D02*
X53128Y36402D01*
X69653Y36402D02*
X71438Y38188D01*
X40000Y49530D02*
X38100Y49530D01*
X71438Y41998D02*
X71438Y38188D01*
X53128Y36402D02*
X40000Y49530D01*
X71438Y41998D02*
X83390Y53950D01*
X160020Y50140D02*
X174428Y50140D01*
X186518Y62230D01*
D18*
X186518Y62230D03*
D17*
X175006Y164084D02*
X175006Y183642D01*
X175006Y164084D02*
X183388Y155702D01*
X183388Y139700D02*
X183388Y138938D01*
X183388Y139700D02*
X183388Y155702D01*
X183388Y138938D02*
X161036Y116586D01*
X127508Y116586D01*
X173790Y184150D02*
X175006Y183642D01*
X127508Y116586D02*
X126340Y114730D01*
X183388Y122510D02*
X183388Y138938D01*
X183388Y122510D02*
X187788Y118110D01*
D18*
X187788Y118110D03*
D17*
X38100Y102616D02*
X38100Y71882D01*
X38100Y102616D02*
X38760Y103300D01*
X38100Y71882D02*
X35560Y69190D01*
X102362Y97028D02*
X102362Y110998D01*
X105156Y113792D01*
X102362Y97028D02*
X100330Y94820D01*
X105156Y113792D02*
X107340Y114730D01*
X102362Y113792D02*
X82804Y113792D01*
X81280Y114960D01*
X102362Y113792D02*
X107340Y114730D01*
X119126Y138938D02*
X119126Y147320D01*
X130302Y158496D01*
X119126Y138938D02*
X116840Y136730D01*
X130302Y158496D02*
X132690Y160450D01*
X144272Y147320D02*
X149860Y147320D01*
X144272Y147320D02*
X133096Y158496D01*
X149860Y147320D02*
X151790Y146050D01*
X133096Y158496D02*
X132690Y160450D01*
X124714Y183642D02*
X147066Y183642D01*
X148790Y184150D01*
X124714Y183642D02*
X123190Y182450D01*
X113538Y161290D02*
X96774Y161290D01*
X113538Y161290D02*
X113690Y160450D01*
X96774Y161290D02*
X94590Y158750D01*
X74422Y158496D02*
X46482Y158496D01*
X43790Y158750D01*
X74422Y158496D02*
X75590Y158750D01*
X88392Y85852D02*
X88392Y74676D01*
X88392Y85852D02*
X68834Y105410D01*
X68834Y110998D01*
X54864Y124968D01*
X49276Y124968D01*
X88392Y74676D02*
X90830Y72820D01*
X49276Y124968D02*
X48260Y125300D01*
X43688Y161290D02*
X32512Y172466D01*
X18542Y172466D01*
X12954Y166878D01*
X12954Y150114D01*
X35306Y127762D01*
X46482Y127762D01*
X43790Y158750D02*
X43688Y161290D01*
X46482Y127762D02*
X48260Y125300D01*
X60452Y102616D02*
X60452Y46736D01*
X60452Y102616D02*
X57760Y103300D01*
X60452Y46736D02*
X61390Y44450D01*
X135890Y32766D02*
X158242Y32766D01*
X160020Y31140D01*
X135890Y32766D02*
X134620Y31140D01*
X107950Y32766D02*
X85598Y32766D01*
X83390Y34950D01*
X107950Y32766D02*
X109220Y31140D01*
X110744Y32766D02*
X133096Y32766D01*
X134620Y31140D01*
X110744Y32766D02*
X109220Y31140D01*
X160020Y31140D02*
X160680Y30480D01*
X186690Y30480D01*
D18*
X186690Y30480D03*
M02*
