G04 EAGLE Gerber RS-274X export*
G75*
%MOMM*%
%FSLAX34Y34*%
%LPD*%
%INTop Copper*%
%IPPOS*%
%AMOC8*
5,1,8,0,0,1.08239X$1,22.5*%
G01*
%ADD10C,0.152400*%
%ADD11R,1.400000X1.000000*%
%ADD12R,1.600000X1.300000*%
%ADD13C,0.304800*%
%ADD14C,0.806400*%


D10*
X22352Y263793D02*
X26868Y263793D01*
X26868Y263794D02*
X27001Y263792D01*
X27133Y263786D01*
X27265Y263776D01*
X27397Y263763D01*
X27529Y263745D01*
X27659Y263724D01*
X27790Y263699D01*
X27919Y263670D01*
X28047Y263637D01*
X28175Y263601D01*
X28301Y263561D01*
X28426Y263517D01*
X28550Y263469D01*
X28672Y263418D01*
X28793Y263363D01*
X28912Y263305D01*
X29030Y263243D01*
X29145Y263178D01*
X29259Y263109D01*
X29370Y263038D01*
X29479Y262962D01*
X29586Y262884D01*
X29691Y262803D01*
X29793Y262718D01*
X29893Y262631D01*
X29990Y262541D01*
X30085Y262448D01*
X30176Y262352D01*
X30265Y262254D01*
X30351Y262153D01*
X30434Y262049D01*
X30514Y261943D01*
X30590Y261835D01*
X30664Y261725D01*
X30734Y261612D01*
X30801Y261498D01*
X30864Y261381D01*
X30924Y261263D01*
X30981Y261143D01*
X31034Y261021D01*
X31083Y260898D01*
X31129Y260774D01*
X31171Y260648D01*
X31209Y260521D01*
X31244Y260393D01*
X31275Y260264D01*
X31302Y260135D01*
X31325Y260004D01*
X31345Y259873D01*
X31360Y259741D01*
X31372Y259609D01*
X31380Y259477D01*
X31384Y259344D01*
X31384Y259212D01*
X31380Y259079D01*
X31372Y258947D01*
X31360Y258815D01*
X31345Y258683D01*
X31325Y258552D01*
X31302Y258421D01*
X31275Y258292D01*
X31244Y258163D01*
X31209Y258035D01*
X31171Y257908D01*
X31129Y257782D01*
X31083Y257658D01*
X31034Y257535D01*
X30981Y257413D01*
X30924Y257293D01*
X30864Y257175D01*
X30801Y257058D01*
X30734Y256944D01*
X30664Y256831D01*
X30590Y256721D01*
X30514Y256613D01*
X30434Y256507D01*
X30351Y256403D01*
X30265Y256302D01*
X30176Y256204D01*
X30085Y256108D01*
X29990Y256015D01*
X29893Y255925D01*
X29793Y255838D01*
X29691Y255753D01*
X29586Y255672D01*
X29479Y255594D01*
X29370Y255518D01*
X29259Y255447D01*
X29145Y255378D01*
X29030Y255313D01*
X28912Y255251D01*
X28793Y255193D01*
X28672Y255138D01*
X28550Y255087D01*
X28426Y255039D01*
X28301Y254995D01*
X28175Y254955D01*
X28047Y254919D01*
X27919Y254886D01*
X27790Y254857D01*
X27659Y254832D01*
X27529Y254811D01*
X27397Y254793D01*
X27265Y254780D01*
X27133Y254770D01*
X27001Y254764D01*
X26868Y254762D01*
X22352Y254762D01*
X22352Y271018D01*
X26868Y271018D01*
X26987Y271016D01*
X27107Y271010D01*
X27226Y271000D01*
X27344Y270986D01*
X27463Y270969D01*
X27580Y270947D01*
X27697Y270922D01*
X27812Y270892D01*
X27927Y270859D01*
X28041Y270822D01*
X28153Y270782D01*
X28264Y270737D01*
X28373Y270689D01*
X28481Y270638D01*
X28587Y270583D01*
X28691Y270524D01*
X28793Y270462D01*
X28893Y270397D01*
X28991Y270328D01*
X29087Y270256D01*
X29180Y270181D01*
X29270Y270104D01*
X29358Y270023D01*
X29443Y269939D01*
X29525Y269852D01*
X29605Y269763D01*
X29681Y269671D01*
X29755Y269577D01*
X29825Y269480D01*
X29892Y269382D01*
X29956Y269281D01*
X30016Y269177D01*
X30073Y269072D01*
X30126Y268965D01*
X30176Y268857D01*
X30222Y268747D01*
X30264Y268635D01*
X30303Y268522D01*
X30338Y268408D01*
X30369Y268293D01*
X30397Y268176D01*
X30420Y268059D01*
X30440Y267942D01*
X30456Y267823D01*
X30468Y267704D01*
X30476Y267585D01*
X30480Y267466D01*
X30480Y267346D01*
X30476Y267227D01*
X30468Y267108D01*
X30456Y266989D01*
X30440Y266870D01*
X30420Y266753D01*
X30397Y266636D01*
X30369Y266519D01*
X30338Y266404D01*
X30303Y266290D01*
X30264Y266177D01*
X30222Y266065D01*
X30176Y265955D01*
X30126Y265847D01*
X30073Y265740D01*
X30016Y265635D01*
X29956Y265531D01*
X29892Y265430D01*
X29825Y265332D01*
X29755Y265235D01*
X29681Y265141D01*
X29605Y265049D01*
X29525Y264960D01*
X29443Y264873D01*
X29358Y264789D01*
X29270Y264708D01*
X29180Y264631D01*
X29087Y264556D01*
X28991Y264484D01*
X28893Y264415D01*
X28793Y264350D01*
X28691Y264288D01*
X28587Y264229D01*
X28481Y264174D01*
X28373Y264123D01*
X28264Y264075D01*
X28153Y264030D01*
X28041Y263990D01*
X27927Y263953D01*
X27812Y263920D01*
X27697Y263890D01*
X27580Y263865D01*
X27463Y263843D01*
X27344Y263826D01*
X27226Y263812D01*
X27107Y263802D01*
X26987Y263796D01*
X26868Y263794D01*
X5842Y240538D02*
X11261Y232862D01*
X16679Y240538D01*
X11261Y232862D02*
X11261Y224282D01*
X151892Y220472D02*
X159117Y220472D01*
X151892Y220472D02*
X151892Y236728D01*
X159117Y236728D01*
X157311Y229503D02*
X151892Y229503D01*
X55372Y140208D02*
X55372Y123952D01*
X55372Y140208D02*
X59888Y140208D01*
X60019Y140206D01*
X60151Y140200D01*
X60282Y140191D01*
X60412Y140177D01*
X60543Y140160D01*
X60672Y140139D01*
X60801Y140115D01*
X60929Y140086D01*
X61057Y140054D01*
X61183Y140018D01*
X61308Y139979D01*
X61433Y139936D01*
X61555Y139889D01*
X61677Y139839D01*
X61797Y139785D01*
X61915Y139728D01*
X62031Y139667D01*
X62146Y139603D01*
X62259Y139536D01*
X62370Y139465D01*
X62478Y139391D01*
X62585Y139314D01*
X62689Y139234D01*
X62791Y139151D01*
X62890Y139066D01*
X62987Y138977D01*
X63081Y138885D01*
X63173Y138791D01*
X63262Y138694D01*
X63347Y138595D01*
X63430Y138493D01*
X63510Y138389D01*
X63587Y138282D01*
X63661Y138174D01*
X63732Y138063D01*
X63799Y137950D01*
X63863Y137835D01*
X63924Y137719D01*
X63981Y137601D01*
X64035Y137481D01*
X64085Y137359D01*
X64132Y137237D01*
X64175Y137112D01*
X64214Y136987D01*
X64250Y136861D01*
X64282Y136733D01*
X64311Y136605D01*
X64335Y136476D01*
X64356Y136347D01*
X64373Y136216D01*
X64387Y136086D01*
X64396Y135955D01*
X64402Y135823D01*
X64404Y135692D01*
X64403Y135692D02*
X64403Y128468D01*
X64404Y128468D02*
X64402Y128337D01*
X64396Y128205D01*
X64387Y128074D01*
X64373Y127944D01*
X64356Y127813D01*
X64335Y127684D01*
X64311Y127555D01*
X64282Y127427D01*
X64250Y127299D01*
X64214Y127173D01*
X64175Y127048D01*
X64132Y126923D01*
X64085Y126801D01*
X64035Y126679D01*
X63981Y126559D01*
X63924Y126441D01*
X63863Y126325D01*
X63799Y126210D01*
X63732Y126097D01*
X63661Y125986D01*
X63587Y125878D01*
X63510Y125771D01*
X63430Y125667D01*
X63347Y125565D01*
X63262Y125466D01*
X63173Y125369D01*
X63081Y125275D01*
X62987Y125183D01*
X62890Y125094D01*
X62791Y125009D01*
X62689Y124926D01*
X62585Y124846D01*
X62478Y124769D01*
X62370Y124695D01*
X62259Y124624D01*
X62146Y124557D01*
X62031Y124493D01*
X61915Y124432D01*
X61797Y124375D01*
X61677Y124321D01*
X61555Y124271D01*
X61433Y124224D01*
X61308Y124181D01*
X61183Y124142D01*
X61057Y124106D01*
X60929Y124074D01*
X60801Y124045D01*
X60672Y124021D01*
X60542Y124000D01*
X60412Y123983D01*
X60282Y123969D01*
X60151Y123960D01*
X60019Y123954D01*
X59888Y123952D01*
X55372Y123952D01*
X153162Y38862D02*
X158581Y38862D01*
X158699Y38864D01*
X158817Y38870D01*
X158935Y38879D01*
X159052Y38893D01*
X159169Y38910D01*
X159286Y38931D01*
X159401Y38956D01*
X159516Y38985D01*
X159630Y39018D01*
X159742Y39054D01*
X159853Y39094D01*
X159963Y39137D01*
X160072Y39184D01*
X160179Y39234D01*
X160284Y39289D01*
X160387Y39346D01*
X160488Y39407D01*
X160588Y39471D01*
X160685Y39538D01*
X160780Y39608D01*
X160872Y39682D01*
X160963Y39758D01*
X161050Y39838D01*
X161135Y39920D01*
X161217Y40005D01*
X161297Y40092D01*
X161373Y40183D01*
X161447Y40275D01*
X161517Y40370D01*
X161584Y40467D01*
X161648Y40567D01*
X161709Y40668D01*
X161766Y40771D01*
X161821Y40876D01*
X161871Y40983D01*
X161918Y41092D01*
X161961Y41202D01*
X162001Y41313D01*
X162037Y41425D01*
X162070Y41539D01*
X162099Y41654D01*
X162124Y41769D01*
X162145Y41886D01*
X162162Y42003D01*
X162176Y42120D01*
X162185Y42238D01*
X162191Y42356D01*
X162193Y42474D01*
X162193Y44281D01*
X162191Y44399D01*
X162185Y44517D01*
X162176Y44635D01*
X162162Y44752D01*
X162145Y44869D01*
X162124Y44986D01*
X162099Y45101D01*
X162070Y45216D01*
X162037Y45330D01*
X162001Y45442D01*
X161961Y45553D01*
X161918Y45663D01*
X161871Y45772D01*
X161821Y45879D01*
X161766Y45984D01*
X161709Y46087D01*
X161648Y46188D01*
X161584Y46288D01*
X161517Y46385D01*
X161447Y46480D01*
X161373Y46572D01*
X161297Y46663D01*
X161217Y46750D01*
X161135Y46835D01*
X161050Y46917D01*
X160963Y46997D01*
X160872Y47073D01*
X160780Y47147D01*
X160685Y47217D01*
X160588Y47284D01*
X160488Y47348D01*
X160387Y47409D01*
X160284Y47466D01*
X160179Y47521D01*
X160072Y47571D01*
X159963Y47618D01*
X159853Y47661D01*
X159742Y47701D01*
X159630Y47737D01*
X159516Y47770D01*
X159401Y47799D01*
X159286Y47824D01*
X159169Y47845D01*
X159052Y47862D01*
X158935Y47876D01*
X158817Y47885D01*
X158699Y47891D01*
X158581Y47893D01*
X153162Y47893D01*
X153162Y55118D01*
X162193Y55118D01*
X131713Y25033D02*
X129004Y25033D01*
X131713Y25033D02*
X131713Y16002D01*
X126294Y16002D01*
X126176Y16004D01*
X126058Y16010D01*
X125940Y16019D01*
X125823Y16033D01*
X125706Y16050D01*
X125589Y16071D01*
X125474Y16096D01*
X125359Y16125D01*
X125245Y16158D01*
X125133Y16194D01*
X125022Y16234D01*
X124912Y16277D01*
X124803Y16324D01*
X124696Y16374D01*
X124591Y16429D01*
X124488Y16486D01*
X124387Y16547D01*
X124287Y16611D01*
X124190Y16678D01*
X124095Y16748D01*
X124003Y16822D01*
X123912Y16898D01*
X123825Y16978D01*
X123740Y17060D01*
X123658Y17145D01*
X123578Y17232D01*
X123502Y17323D01*
X123428Y17415D01*
X123358Y17510D01*
X123291Y17607D01*
X123227Y17707D01*
X123166Y17808D01*
X123109Y17911D01*
X123054Y18016D01*
X123004Y18123D01*
X122957Y18232D01*
X122914Y18342D01*
X122874Y18453D01*
X122838Y18565D01*
X122805Y18679D01*
X122776Y18794D01*
X122751Y18909D01*
X122730Y19026D01*
X122713Y19143D01*
X122699Y19260D01*
X122690Y19378D01*
X122684Y19496D01*
X122682Y19614D01*
X122682Y28646D01*
X122684Y28764D01*
X122690Y28882D01*
X122699Y29000D01*
X122713Y29117D01*
X122730Y29234D01*
X122751Y29351D01*
X122776Y29466D01*
X122805Y29581D01*
X122838Y29695D01*
X122874Y29807D01*
X122914Y29918D01*
X122957Y30028D01*
X123004Y30137D01*
X123054Y30244D01*
X123108Y30349D01*
X123166Y30452D01*
X123227Y30553D01*
X123291Y30653D01*
X123358Y30750D01*
X123428Y30845D01*
X123502Y30937D01*
X123578Y31028D01*
X123658Y31115D01*
X123740Y31200D01*
X123825Y31282D01*
X123912Y31362D01*
X124003Y31438D01*
X124095Y31512D01*
X124190Y31582D01*
X124287Y31649D01*
X124387Y31713D01*
X124488Y31774D01*
X124591Y31831D01*
X124696Y31885D01*
X124803Y31936D01*
X124912Y31983D01*
X125022Y32026D01*
X125133Y32066D01*
X125245Y32102D01*
X125359Y32135D01*
X125474Y32164D01*
X125589Y32189D01*
X125706Y32210D01*
X125823Y32227D01*
X125940Y32241D01*
X126058Y32250D01*
X126176Y32256D01*
X126294Y32258D01*
X131713Y32258D01*
D11*
X112600Y203200D03*
X90600Y193700D03*
X90600Y212700D03*
X150700Y127000D03*
X128700Y117500D03*
X128700Y136500D03*
X74500Y203200D03*
X52500Y193700D03*
X52500Y212700D03*
X112600Y152400D03*
X90600Y142900D03*
X90600Y161900D03*
X150700Y88900D03*
X128700Y79400D03*
X128700Y98400D03*
X49100Y63500D03*
X27100Y54000D03*
X27100Y73000D03*
X99900Y63500D03*
X77900Y54000D03*
X77900Y73000D03*
X99900Y25400D03*
X77900Y15900D03*
X77900Y34900D03*
D12*
X99060Y240690D03*
X99060Y259690D03*
X148590Y168300D03*
X148590Y187300D03*
X50800Y244500D03*
X50800Y263500D03*
X38100Y92100D03*
X38100Y111100D03*
X88900Y92100D03*
X88900Y111100D03*
D13*
X88900Y114300D02*
X38100Y114300D01*
X38100Y111100D01*
X50800Y260350D02*
X95250Y260350D01*
X99060Y259690D01*
X50800Y260350D02*
X50800Y263500D01*
X114300Y228600D02*
X132080Y210820D01*
X148590Y194310D01*
X114300Y228600D02*
X114300Y247650D01*
X101600Y260350D01*
X148590Y194310D02*
X148590Y187300D01*
X101600Y260350D02*
X99060Y259690D01*
X88900Y114300D02*
X114300Y114300D01*
X114300Y120650D01*
X120650Y127000D01*
X139700Y127000D01*
X88900Y114300D02*
X88900Y111100D01*
X138748Y127952D02*
X139700Y127000D01*
X132080Y149431D02*
X132080Y210820D01*
X138748Y142763D02*
X138748Y127952D01*
X138748Y142763D02*
X132080Y149431D01*
D14*
X159288Y61158D03*
D13*
X140652Y126048D02*
X139700Y127000D01*
X160748Y95163D02*
X160748Y82638D01*
X159288Y81178D01*
X159288Y61158D01*
X140652Y115259D02*
X140652Y126048D01*
X140652Y115259D02*
X160748Y95163D01*
X69850Y165100D02*
X57150Y177800D01*
X69850Y165100D02*
X88900Y146050D01*
X57150Y177800D02*
X57150Y190500D01*
X88900Y146050D02*
X90600Y142900D01*
X57150Y190500D02*
X52500Y193700D01*
X63500Y50800D02*
X38100Y50800D01*
X31750Y50800D01*
X63500Y50800D02*
X69850Y44450D01*
X88900Y44450D01*
X88900Y25400D01*
X82550Y19050D01*
X31750Y50800D02*
X27100Y54000D01*
X77900Y15900D02*
X82550Y19050D01*
X114300Y63500D02*
X127000Y76200D01*
X114300Y63500D02*
X114300Y19050D01*
X107950Y12700D01*
X82550Y12700D01*
X127000Y76200D02*
X128700Y79400D01*
X82550Y12700D02*
X77900Y15900D01*
X25400Y120650D02*
X69850Y165100D01*
X25400Y120650D02*
X25400Y82550D01*
X38100Y82550D01*
X38100Y50800D01*
X128700Y79400D02*
X130078Y78022D01*
X130078Y39370D01*
D14*
X130078Y39370D03*
D13*
X50800Y209550D02*
X12700Y209550D01*
X12700Y50800D01*
X25400Y38100D01*
X76200Y38100D01*
X50800Y209550D02*
X52500Y212700D01*
X76200Y38100D02*
X77900Y34900D01*
X12700Y209550D02*
X15240Y212090D01*
X15240Y217170D01*
D14*
X15240Y217170D03*
D13*
X101600Y209550D02*
X107950Y203200D01*
X101600Y209550D02*
X101600Y234950D01*
X107950Y203200D02*
X112600Y203200D01*
X101600Y234950D02*
X99060Y240690D01*
X127000Y190500D02*
X127000Y139700D01*
X127000Y190500D02*
X114300Y203200D01*
X127000Y139700D02*
X128700Y136500D01*
X114300Y203200D02*
X112600Y203200D01*
X128700Y136500D02*
X124280Y132080D01*
X77470Y132080D01*
D14*
X77470Y132080D03*
D13*
X82550Y209550D02*
X88900Y215900D01*
X82550Y209550D02*
X76200Y203200D01*
X74500Y203200D01*
X90600Y212700D02*
X88900Y215900D01*
X82550Y209550D02*
X50800Y241300D01*
X50800Y244500D01*
X101600Y158750D02*
X107950Y152400D01*
X101600Y158750D02*
X101600Y184150D01*
X95250Y190500D01*
X107950Y152400D02*
X112600Y152400D01*
X95250Y190500D02*
X90600Y193700D01*
X25400Y76200D02*
X19050Y76200D01*
X19050Y177800D01*
X44450Y203200D01*
X63500Y203200D01*
X63500Y190500D01*
X88900Y165100D01*
X25400Y76200D02*
X27100Y73000D01*
X90600Y161900D02*
X88900Y165100D01*
X62548Y218963D02*
X60763Y220748D01*
X45952Y220748D01*
X33020Y233680D01*
X62548Y204152D02*
X63500Y203200D01*
X62548Y204152D02*
X62548Y218963D01*
D14*
X33020Y247650D03*
D13*
X33020Y233680D01*
X88900Y69850D02*
X95250Y63500D01*
X88900Y69850D02*
X88900Y92100D01*
X95250Y63500D02*
X99900Y63500D01*
X88900Y95250D02*
X127000Y95250D01*
X128700Y98400D01*
X88900Y95250D02*
X88900Y92100D01*
X76200Y63500D02*
X49100Y63500D01*
X76200Y63500D02*
X76200Y69850D01*
X77900Y73000D01*
X44450Y88900D02*
X38100Y88900D01*
X44450Y88900D02*
X44450Y63500D01*
X38100Y88900D02*
X38100Y92100D01*
X44450Y63500D02*
X49100Y63500D01*
X139700Y95250D02*
X146050Y88900D01*
X139700Y95250D02*
X139700Y107950D01*
X133350Y114300D01*
X146050Y88900D02*
X150700Y88900D01*
X133350Y114300D02*
X128700Y117500D01*
X148590Y129110D02*
X148590Y168300D01*
X148590Y129110D02*
X150700Y127000D01*
X148590Y168300D02*
X160558Y180268D01*
X160558Y212090D02*
X159288Y213360D01*
X160558Y212090D02*
X160558Y180268D01*
D14*
X159288Y213360D03*
D13*
X95250Y50800D02*
X95250Y25400D01*
X95250Y50800D02*
X82550Y50800D01*
X95250Y25400D02*
X99900Y25400D01*
X82550Y50800D02*
X77900Y54000D01*
M02*
